<svg xmlns="http://www.w3.org/2000/svg" viewBox="0 0 64 64" width="64" height="64">
  <defs>
    <linearGradient id="coffeeGradient" x1="0%" y1="0%" x2="0%" y2="100%">
      <stop offset="0%" style="stop-color:#6F4E37;stop-opacity:1" />
      <stop offset="100%" style="stop-color:#4A3226;stop-opacity:1" />
    </linearGradient>
  </defs>
  <circle cx="32" cy="32" r="30" fill="url(#coffeeGradient)"/>
  <path d="M 20 25 Q 20 20 25 18 Q 30 16 32 16 Q 34 16 39 18 Q 44 20 44 25 L 44 45 Q 44 48 41 48 L 23 48 Q 20 48 20 45 Z" fill="#FFDD00" stroke="#6F4E37" stroke-width="1.5"/>
  <path d="M 44 30 L 48 30 Q 52 30 52 34 Q 52 38 48 38 L 44 38" fill="none" stroke="#FFDD00" stroke-width="2" stroke-linecap="round"/>
  <path d="M 26 12 Q 26 8 28 8 Q 28 12 28 12" stroke="#FFDD00" stroke-width="1.5" fill="none" stroke-linecap="round"/>
  <path d="M 32 12 Q 32 8 34 8 Q 34 12 34 12" stroke="#FFDD00" stroke-width="1.5" fill="none" stroke-linecap="round"/>
  <path d="M 38 12 Q 38 8 40 8 Q 40 12 40 12" stroke="#FFDD00" stroke-width="1.5" fill="none" stroke-linecap="round"/>
</svg>

